<?xml version="1.0" encoding="utf-8"?>
<!-- Generator: Adobe Illustrator 26.2.1, SVG Export Plug-In . SVG Version: 6.00 Build 0)  -->
<svg version="1.1" id="Layer_1" xmlns="http://www.w3.org/2000/svg" xmlns:xlink="http://www.w3.org/1999/xlink" x="0px" y="0px"
	 viewBox="0 0 100 45" style="enable-background:new 0 0 100 45;" xml:space="preserve">
<style type="text/css">
	.st0{fill:#FFFFFF;}
	.st1{fill:#FC0706;}
</style>
<path class="st0" d="M64.4,29.2c-2,0-4-0.4-5.7-1.1c-1.8-0.7-3.3-1.7-4.7-3c-1.4-1.3-2.4-2.8-3.2-4.6c-0.8-1.8-1.1-3.8-1.1-5.9
	s0.4-4.1,1.1-5.9c0.8-1.8,1.8-3.3,3.2-4.6c1.4-1.3,2.9-2.3,4.7-3C60.5,0.4,62.4,0,64.4,0c2,0,4,0.4,5.7,1.1c1.8,0.7,3.3,1.7,4.7,3
	c1.3,1.3,2.4,2.8,3.1,4.6c0.8,1.8,1.1,3.8,1.1,5.9s-0.4,4.1-1.1,5.9c-0.8,1.8-1.8,3.3-3.2,4.6c-1.4,1.3-2.9,2.3-4.7,3
	C68.4,28.8,66.5,29.2,64.4,29.2L64.4,29.2z M64.4,23.1c1.5,0,2.8-0.4,3.9-1.1c1.1-0.7,2-1.7,2.6-3c0.6-1.3,0.9-2.7,0.9-4.4
	s-0.3-3.1-0.9-4.4c-0.6-1.3-1.5-2.3-2.6-3c-1.1-0.7-2.4-1.1-3.9-1.1c-1.5,0-2.8,0.4-4,1.1c-1.1,0.7-2,1.7-2.6,3
	c-0.6,1.3-0.9,2.7-0.9,4.4c0,1.7,0.3,3.1,0.9,4.4c0.6,1.3,1.5,2.3,2.6,3C61.6,22.7,62.9,23.1,64.4,23.1z"/>
<path class="st0" d="M93,9.7c-0.7-1.3-1.6-2.2-2.6-2.8C89.4,6.3,88.1,6,86.7,6c-1.4,0-2.8,0.4-3.9,1.1c-1.1,0.8-2,1.8-2.7,3.1
	c-0.6,1.3-1,2.7-1,4.4c0,2.6,0.7,4.7,2.1,6.2c1.4,1.6,3.3,2.3,5.8,2.3c1.4,0,2.7-0.4,3.8-1.1c1.1-0.7,1.9-1.7,2.6-2.8v-1.2h-6.9
	v-5.6H100v8.4c-0.7,1.4-1.6,2.7-2.8,4c-1.2,1.3-2.7,2.3-4.5,3.1c-1.8,0.8-3.8,1.2-6.1,1.2c-2.9,0-5.4-0.6-7.6-1.9
	c-2.2-1.2-3.9-3-5.1-5.1c-1.2-2.2-1.8-4.7-1.8-7.6c0-2.9,0.6-5.4,1.8-7.6c1.2-2.2,2.9-3.9,5.1-5.1C81.1,0.6,83.6,0,86.5,0
	c2.1,0,4,0.3,5.8,1c1.8,0.7,3.3,1.6,4.6,2.8c1.3,1.2,2.2,2.7,2.8,4.4L93,9.7L93,9.7z"/>
<path class="st0" d="M41.1,0v23.1h24.5v6.1H33.9V0H41.1z"/>
<path class="st0" d="M6.8,44.6l-0.2-1.2c-0.3,0.4-0.7,0.7-1.1,0.9c-0.4,0.2-0.9,0.3-1.6,0.3c-0.9,0-1.7-0.2-2.3-0.7
	c-0.6-0.5-0.9-1.1-0.9-2c0-0.8,0.3-1.4,0.9-2c0.6-0.5,1.4-0.9,2.6-1l2.4-0.3v-0.7c0-0.3-0.1-0.5-0.4-0.7C6,37.1,5.6,37,5.1,37
	c-0.5,0-0.8,0.1-1.2,0.3c-0.3,0.2-0.6,0.6-0.7,1l-2.1-0.8c0.3-0.8,0.7-1.5,1.4-2c0.7-0.5,1.6-0.7,2.6-0.7c1.3,0,2.2,0.3,2.9,1
	c0.6,0.6,1,1.5,1,2.5v6.2L6.8,44.6L6.8,44.6z M6.6,40.4l-2.1,0.3c-0.4,0.1-0.7,0.2-1,0.4c-0.2,0.2-0.3,0.4-0.3,0.7
	c0,0.3,0.1,0.5,0.3,0.7c0.2,0.2,0.5,0.3,0.9,0.3c0.7,0,1.2-0.2,1.6-0.6c0.4-0.4,0.5-0.9,0.5-1.6V40.4z"/>
<path class="st0" d="M19.6,44.5h-2.2l-0.2-1c-0.3,0.3-0.7,0.6-1.1,0.8c-0.4,0.2-0.9,0.3-1.4,0.3c-1.1,0-2-0.4-2.6-1.1
	c-0.6-0.7-1-1.7-1-3V35h2.4v5.3c0,1.5,0.6,2.2,1.8,2.2c0.6,0,1.1-0.2,1.4-0.6c0.3-0.4,0.5-0.9,0.5-1.7V35h2.4L19.6,44.5L19.6,44.5z"
	/>
<path class="st0" d="M22.6,35v-2.7h2.5V35h2.1v2.2h-2.1V41c0,0.5,0.1,0.8,0.3,1.1c0.2,0.2,0.5,0.3,0.8,0.3c0.3,0,0.7,0,1-0.1v2.1
	c-0.8,0.2-1.6,0.2-2.3,0c-0.7-0.1-1.3-0.5-1.7-1c-0.4-0.5-0.6-1.3-0.6-2.4v-3.9h-1.3V35H22.6L22.6,35z"/>
<path class="st0" d="M33.3,44.7c-0.9,0-1.8-0.2-2.5-0.6c-0.7-0.4-1.3-1-1.7-1.7c-0.4-0.7-0.6-1.6-0.6-2.6c0-1,0.2-1.9,0.6-2.6
	c0.4-0.7,1-1.3,1.7-1.7c0.7-0.4,1.6-0.6,2.5-0.6c0.9,0,1.7,0.2,2.5,0.6c0.7,0.4,1.3,1,1.8,1.7c0.4,0.7,0.6,1.6,0.6,2.6
	c0,1-0.2,1.9-0.7,2.6c-0.4,0.7-1,1.3-1.8,1.7C35,44.5,34.2,44.7,33.3,44.7z M33.2,42.5c0.4,0,0.8-0.1,1.1-0.3
	c0.4-0.2,0.6-0.5,0.9-0.9c0.2-0.4,0.3-0.9,0.3-1.5c0-0.9-0.2-1.6-0.7-2c-0.5-0.5-1-0.7-1.6-0.7c-0.6,0-1.1,0.2-1.6,0.7
	c-0.4,0.5-0.7,1.1-0.7,2s0.2,1.6,0.6,2C32.1,42.3,32.6,42.5,33.2,42.5L33.2,42.5z"/>
<path class="st0" d="M40,35h2.2l0.2,1c0.3-0.3,0.7-0.6,1.1-0.8c0.4-0.2,0.9-0.3,1.4-0.3c0.6,0,1.2,0.1,1.7,0.4
	c0.5,0.3,0.9,0.6,1.2,1.1c0.3-0.5,0.8-0.8,1.3-1.1c0.6-0.3,1.1-0.4,1.8-0.4c1.1,0,2,0.4,2.7,1.1c0.7,0.7,1,1.7,1,3v5.6h-2.4v-5.2
	c0-1.5-0.6-2.2-1.8-2.2c-0.6,0-1.1,0.2-1.4,0.6c-0.3,0.4-0.5,0.9-0.5,1.7v5.2h-2.4v-5.2c0-1.5-0.6-2.2-1.7-2.2
	c-1.2,0-1.8,0.7-1.8,2.2v5.2H40V35L40,35z"/>
<path class="st0" d="M62.5,44.6l-0.2-1.2c-0.3,0.4-0.7,0.7-1.1,0.9c-0.4,0.2-0.9,0.3-1.6,0.3c-0.9,0-1.7-0.2-2.3-0.7s-0.9-1.1-0.9-2
	c0-0.8,0.3-1.4,0.9-2c0.6-0.5,1.4-0.9,2.6-1l2.4-0.3v-0.7c0-0.3-0.1-0.5-0.4-0.7c-0.2-0.2-0.6-0.3-1.1-0.3c-0.5,0-0.8,0.1-1.2,0.3
	c-0.3,0.2-0.6,0.6-0.7,1l-2.1-0.8c0.3-0.8,0.7-1.5,1.4-2c0.7-0.5,1.6-0.7,2.6-0.7c1.3,0,2.2,0.3,2.9,1c0.6,0.6,1,1.5,1,2.5v6.2
	L62.5,44.6L62.5,44.6z M62.3,40.4l-2.1,0.3c-0.4,0.1-0.7,0.2-1,0.4c-0.2,0.2-0.3,0.4-0.3,0.7c0,0.3,0.1,0.5,0.3,0.7
	c0.2,0.2,0.5,0.3,0.9,0.3c0.7,0,1.2-0.2,1.6-0.6c0.4-0.4,0.5-0.9,0.5-1.6V40.4z"/>
<path class="st0" d="M67.6,35v-2.7h2.5V35h2.1v2.2h-2.1V41c0,0.5,0.1,0.8,0.3,1.1c0.2,0.2,0.5,0.3,0.8,0.3c0.3,0,0.7,0,1-0.1v2.1
	c-0.8,0.2-1.6,0.2-2.3,0c-0.7-0.1-1.3-0.5-1.7-1c-0.4-0.5-0.6-1.3-0.6-2.4v-3.9h-1.3V35H67.6z"/>
<path class="st0" d="M75.5,33.8c-0.4,0-0.8-0.1-1.1-0.4c-0.3-0.3-0.5-0.6-0.5-1.1c0-0.4,0.1-0.8,0.5-1.1c0.3-0.3,0.7-0.4,1.1-0.4
	c0.4,0,0.8,0.1,1.1,0.4c0.3,0.3,0.4,0.6,0.4,1.1c0,0.4-0.1,0.8-0.4,1.1C76.3,33.7,75.9,33.8,75.5,33.8z M74.2,35h2.4v9.5h-2.4V35z"
	/>
<path class="st0" d="M83.7,44.7c-0.9,0-1.8-0.2-2.5-0.6c-0.7-0.4-1.3-1-1.7-1.7c-0.4-0.7-0.6-1.6-0.6-2.6c0-1,0.2-1.9,0.6-2.6
	c0.4-0.7,1-1.3,1.7-1.7c0.7-0.4,1.6-0.6,2.5-0.6s1.7,0.2,2.5,0.6c0.7,0.4,1.3,1,1.8,1.7c0.4,0.7,0.6,1.6,0.6,2.6
	c0,1-0.2,1.9-0.7,2.6c-0.4,0.7-1,1.3-1.8,1.7C85.4,44.5,84.6,44.7,83.7,44.7L83.7,44.7z M83.7,42.5c0.4,0,0.8-0.1,1.1-0.3
	c0.4-0.2,0.6-0.5,0.9-0.9c0.2-0.4,0.3-0.9,0.3-1.5c0-0.9-0.2-1.6-0.7-2c-0.5-0.5-1-0.7-1.6-0.7c-0.6,0-1.1,0.2-1.6,0.7
	c-0.4,0.5-0.7,1.1-0.7,2s0.2,1.6,0.6,2C82.6,42.3,83.1,42.5,83.7,42.5L83.7,42.5z"/>
<path class="st0" d="M90.5,35h2.2l0.2,1c0.3-0.3,0.7-0.6,1.1-0.8c0.4-0.2,0.9-0.3,1.4-0.3c1.1,0,2,0.4,2.6,1.1
	c0.6,0.7,0.9,1.7,0.9,3v5.6h-2.4v-5.2c0-1.5-0.6-2.2-1.8-2.2c-1.2,0-1.8,0.7-1.8,2.2v5.2h-2.4V35L90.5,35z"/>
<path class="st1" d="M21.5,23.2H0v6h21.5V23.2z"/>
<path class="st1" d="M17.7,11.6H0v6h17.7V11.6z"/>
<path class="st1" d="M21.5,0H0v6h21.5V0z"/>
<path class="st0" d="M30.7,6V0h-6v6H30.7z"/>
</svg>
